<svg width="41" height="40" viewBox="0 0 41 40" fill="none" xmlns="http://www.w3.org/2000/svg">
<mask id="mask0_2_161" style="mask-type:alpha" maskUnits="userSpaceOnUse" x="0" y="0" width="41" height="40">
<rect x="0.666626" width="40" height="40" fill="#D9D9D9"/>
</mask>
<g mask="url(#mask0_2_161)">
<path d="M27.3333 21.6666C26.0555 20.4999 24.8127 19.3544 23.6049 18.2299C22.396 17.1044 21.3266 15.9999 20.3966 14.9166C19.4655 13.8333 18.7221 12.7844 18.1666 11.7699C17.611 10.7566 17.3333 9.7777 17.3333 8.83325C17.3333 7.2777 17.861 5.97214 18.9166 4.91659C19.9721 3.86103 21.2777 3.33325 22.8333 3.33325C23.7221 3.33325 24.5555 3.52047 25.3333 3.89492C26.111 4.27047 26.7777 4.7777 27.3333 5.41659C27.8888 4.7777 28.5555 4.27047 29.3333 3.89492C30.111 3.52047 30.9444 3.33325 31.8333 3.33325C33.3888 3.33325 34.6944 3.86103 35.7499 4.91659C36.8055 5.97214 37.3333 7.2777 37.3333 8.83325C37.3333 9.7777 37.0555 10.7566 36.4999 11.7699C35.9444 12.7844 35.2016 13.8333 34.2716 14.9166C33.3405 15.9999 32.2777 17.1044 31.0833 18.2299C29.8888 19.3544 28.6388 20.4999 27.3333 21.6666ZM27.3333 17.1666C28.9721 15.611 30.4933 14.0621 31.8966 12.5199C33.2988 10.9788 33.9999 9.74992 33.9999 8.83325C33.9999 8.19436 33.7988 7.67325 33.3966 7.26992C32.9933 6.8677 32.4721 6.66659 31.8333 6.66659C31.4444 6.66659 31.0766 6.7427 30.7299 6.89492C30.3821 7.04825 30.0833 7.2777 29.8333 7.58325L27.3333 10.5833L24.8333 7.58325C24.5833 7.2777 24.2849 7.04825 23.9383 6.89492C23.5905 6.7427 23.2221 6.66659 22.8333 6.66659C22.1944 6.66659 21.6738 6.8677 21.2716 7.26992C20.8683 7.67325 20.6666 8.19436 20.6666 8.83325C20.6666 9.74992 21.3677 10.9788 22.7699 12.5199C24.1733 14.0621 25.6944 15.611 27.3333 17.1666ZM23.9999 37.4999L12.3333 34.2499V36.6666H2.33325V18.3333H15.5833L25.9166 22.1666C26.8333 22.4999 27.5766 23.0833 28.1466 23.9166C28.7155 24.7499 28.9999 25.6666 28.9999 26.6666H32.3333C33.7221 26.6666 34.9027 27.1249 35.8749 28.0416C36.8471 28.9583 37.3333 30.1666 37.3333 31.6666V33.3333L23.9999 37.4999ZM5.66659 33.3333H8.99992V21.6666H5.66659V33.3333ZM23.9166 33.9999L33.8333 30.9166C33.7499 30.611 33.5621 30.3816 33.2699 30.2283C32.9788 30.076 32.6666 29.9999 32.3333 29.9999H24.3333C23.4721 29.9999 22.6944 29.9444 21.9999 29.8333C21.3055 29.7221 20.5555 29.5277 19.7499 29.2499L16.8749 28.2499L17.8333 25.0833L21.1666 26.1666C21.6666 26.3333 22.2499 26.4583 22.9166 26.5416C23.5833 26.6249 24.4999 26.6666 25.6666 26.6666C25.6666 26.361 25.5766 26.0694 25.3966 25.7916C25.2155 25.5138 24.9999 25.3333 24.7499 25.2499L14.9999 21.6666H12.3333V30.8333L23.9166 33.9999Z" fill="url(#paint0_linear_2_161)"/>
</g>
<defs>
<linearGradient id="paint0_linear_2_161" x1="2.33325" y1="3.33325" x2="39.8704" y2="6.39503" gradientUnits="userSpaceOnUse">
<stop stop-color="#F5E774"/>
<stop offset="1" stop-color="#05A3E7"/>
</linearGradient>
</defs>
</svg>
